<?xml version="1.0" encoding="utf-8"?>
<!-- Generator: Adobe Illustrator 25.2.3, SVG Export Plug-In . SVG Version: 6.00 Build 0)  -->
<svg version="1.1" id="Layer_1" xmlns="http://www.w3.org/2000/svg" xmlns:xlink="http://www.w3.org/1999/xlink" x="0px" y="0px"
	 viewBox="0 0 800 800" style="enable-background:new 0 0 800 800;" xml:space="preserve">
<style type="text/css">
	.st0{fill:#FFFFFF;}
</style>
<g>
	<rect width="100" height="100"/>
</g>
<g>
	<rect x="100" y="100" width="100" height="100"/>
</g>
<g>
	<rect x="200" width="100" height="100"/>
</g>
<g>
	<rect x="300" y="100" width="100" height="100"/>
</g>
<g>
	<rect x="400" width="100" height="100"/>
</g>
<g>
	<rect x="500" y="100" width="100" height="100"/>
</g>
<g>
	<rect x="600" width="100" height="100"/>
</g>
<g>
	<rect x="700" y="100" width="100" height="100"/>
</g>
<g>
	<rect y="200" width="100" height="100"/>
</g>
<g>
	<rect x="100" y="300" width="100" height="100"/>
</g>
<g>
	<rect x="200" y="200" width="100" height="100"/>
</g>
<g>
	<rect x="300" y="300" width="100" height="100"/>
</g>
<g>
	<rect x="400" y="200" width="100" height="100"/>
</g>
<g>
	<rect x="500" y="300" width="100" height="100"/>
</g>
<g>
	<rect x="600" y="200" width="100" height="100"/>
</g>
<g>
	<rect x="700" y="300" width="100" height="100"/>
</g>
<g>
	<rect y="400" width="100" height="100"/>
</g>
<g>
	<rect x="100" y="500" width="100" height="100"/>
</g>
<g>
	<rect x="200" y="400" width="100" height="100"/>
</g>
<g>
	<rect x="300" y="500" width="100" height="100"/>
</g>
<g>
	<rect x="400" y="400" width="100" height="100"/>
</g>
<g>
	<rect x="500" y="500" width="100" height="100"/>
</g>
<g>
	<rect x="600" y="400" width="100" height="100"/>
</g>
<g>
	<rect x="700" y="500" width="100" height="100"/>
</g>
<g>
	<rect y="600" width="100" height="100"/>
</g>
<g>
	<rect x="100" y="700" width="100" height="100"/>
</g>
<g>
	<rect x="200" y="600" width="100" height="100"/>
</g>
<g>
	<rect x="300" y="700" width="100" height="100"/>
</g>
<g>
	<rect x="400" y="600" width="100" height="100"/>
</g>
<g>
	<rect x="500" y="700" width="100" height="100"/>
</g>
<g>
	<rect x="600" y="600" width="100" height="100"/>
</g>
<g>
	<rect x="700" y="700" width="100" height="100"/>
</g>
</svg>
