<?xml version="1.0" encoding="utf-8"?>
<!-- Generator: Adobe Illustrator 25.2.3, SVG Export Plug-In . SVG Version: 6.00 Build 0)  -->
<svg version="1.1" id="Layer_1" xmlns="http://www.w3.org/2000/svg" xmlns:xlink="http://www.w3.org/1999/xlink" x="0px" y="0px"
	 viewBox="0 0 800 800" style="enable-background:new 0 0 800 800;" xml:space="preserve">
<style type="text/css">
	.st0{fill:#FFFFFF;}
</style>
<g>
	<g>
		<rect x="700" y="0" class="st0" width="100" height="100"/>
	</g>
	<g>
		<rect x="600" y="100" class="st0" width="100" height="100"/>
	</g>
	<g>
		<rect x="500" y="0" class="st0" width="100" height="100"/>
	</g>
	<g>
		<rect x="400" y="100" class="st0" width="100" height="100"/>
	</g>
	<g>
		<rect x="300" y="0" class="st0" width="100" height="100"/>
	</g>
	<g>
		<rect x="200" y="100" class="st0" width="100" height="100"/>
	</g>
	<g>
		<rect x="100" y="0" class="st0" width="100" height="100"/>
	</g>
	<g>
		<rect x="0" y="100" class="st0" width="100" height="100"/>
	</g>
	<g>
		<rect x="700" y="200" class="st0" width="100" height="100"/>
	</g>
	<g>
		<rect x="600" y="300" class="st0" width="100" height="100"/>
	</g>
	<g>
		<rect x="500" y="200" class="st0" width="100" height="100"/>
	</g>
	<g>
		<rect x="400" y="300" class="st0" width="100" height="100"/>
	</g>
	<g>
		<rect x="300" y="200" class="st0" width="100" height="100"/>
	</g>
	<g>
		<rect x="200" y="300" class="st0" width="100" height="100"/>
	</g>
	<g>
		<rect x="100" y="200" class="st0" width="100" height="100"/>
	</g>
	<g>
		<rect x="0" y="300" class="st0" width="100" height="100"/>
	</g>
	<g>
		<rect x="700" y="400" class="st0" width="100" height="100"/>
	</g>
	<g>
		<rect x="600" y="500" class="st0" width="100" height="100"/>
	</g>
	<g>
		<rect x="500" y="400" class="st0" width="100" height="100"/>
	</g>
	<g>
		<rect x="400" y="500" class="st0" width="100" height="100"/>
	</g>
	<g>
		<rect x="300" y="400" class="st0" width="100" height="100"/>
	</g>
	<g>
		<rect x="200" y="500" class="st0" width="100" height="100"/>
	</g>
	<g>
		<rect x="100" y="400" class="st0" width="100" height="100"/>
	</g>
	<g>
		<rect x="0" y="500" class="st0" width="100" height="100"/>
	</g>
	<g>
		<rect x="700" y="600" class="st0" width="100" height="100"/>
	</g>
	<g>
		<rect x="600" y="700" class="st0" width="100" height="100"/>
	</g>
	<g>
		<rect x="500" y="600" class="st0" width="100" height="100"/>
	</g>
	<g>
		<rect x="400" y="700" class="st0" width="100" height="100"/>
	</g>
	<g>
		<rect x="300" y="600" class="st0" width="100" height="100"/>
	</g>
	<g>
		<rect x="200" y="700" class="st0" width="100" height="100"/>
	</g>
	<g>
		<rect x="100" y="600" class="st0" width="100" height="100"/>
	</g>
	<g>
		<rect x="0" y="700" class="st0" width="100" height="100"/>
	</g>
</g>
</svg>
